<svg version="1.1" id="Layer_1" xmlns="http://www.w3.org/2000/svg" xmlns:xlink="http://www.w3.org/1999/xlink" x="0px" y="0px"
	 width="100%" viewBox="0 0 1775 748" enable-background="new 0 0 1775 748" xml:space="preserve">
<path fill="#EAE6E5" opacity="1.000000" stroke="none" 
	d="
M1686.000000,749.000000 
	C1124.000000,749.000000 562.500000,749.000000 1.000000,749.000000 
	C1.000000,499.666656 1.000000,250.333328 1.000000,1.000000 
	C592.666687,1.000000 1184.333374,1.000000 1776.000000,1.000000 
	C1776.000000,250.333328 1776.000000,499.666656 1776.000000,749.000000 
	C1746.166626,749.000000 1716.333374,749.000000 1686.000000,749.000000 
M124.296425,441.193604 
	C126.293579,446.833069 127.989174,452.601593 130.338516,458.090302 
	C142.472504,486.438782 160.916870,510.249329 183.588837,530.880005 
	C200.360703,546.141785 217.488098,560.930054 239.020691,569.451477 
	C242.762802,570.932373 245.898071,570.926086 249.478775,569.379333 
	C263.186523,563.458008 275.531311,555.456299 287.097168,546.036133 
	C313.023895,524.919250 335.927582,501.270752 351.465973,471.240814 
	C359.456726,455.797668 366.768921,440.047058 367.158417,422.281067 
	C367.560028,403.961823 367.272736,385.626862 367.236053,367.298889 
	C367.217407,357.970764 367.264740,348.636871 366.952118,339.316681 
	C366.693665,331.611755 364.825348,329.511139 357.341034,328.686096 
	C319.596802,324.525146 286.162354,310.014496 256.200867,287.002563 
	C246.879883,279.843597 240.653625,280.188751 231.175720,287.573364 
	C216.406876,299.080414 200.416183,308.494354 182.969681,315.466064 
	C165.553726,322.425598 147.495926,326.602875 128.963791,329.014008 
	C122.271332,329.884735 120.995918,331.279419 120.995567,337.385345 
	C120.994026,364.039917 121.124130,390.695557 120.911087,417.348450 
	C120.847855,425.259369 121.403549,432.949677 124.296425,441.193604 
M1390.640381,341.062653 
	C1389.965088,343.040924 1388.903076,344.980865 1388.702271,347.006226 
	C1388.375000,350.306763 1388.608276,353.663025 1388.608276,356.995789 
	C1388.608276,393.489594 1388.597168,429.983398 1388.620117,466.477203 
	C1388.624023,472.818420 1390.322388,474.957764 1395.733765,474.966675 
	C1415.729492,474.999603 1435.738403,475.320770 1455.717163,474.710205 
	C1471.093384,474.240326 1485.113037,469.065063 1496.715332,458.592896 
	C1513.286133,443.636078 1518.810425,424.412262 1518.059814,402.723572 
	C1516.854004,367.874908 1490.869751,341.139252 1456.089478,339.957886 
	C1436.281494,339.285126 1416.438721,339.613556 1396.611450,339.581177 
	C1394.841064,339.578278 1393.069702,340.240387 1390.640381,341.062653 
M954.468140,450.946655 
	C987.911255,406.447418 962.906677,345.395966 907.740601,337.879822 
	C880.937256,334.227997 858.197327,343.273926 841.893616,365.093262 
	C825.512878,387.015717 823.078552,411.553131 834.087585,436.421753 
	C855.162781,484.029236 919.640015,491.895782 954.468140,450.946655 
M696.255676,366.500061 
	C696.255859,399.816071 696.242432,433.132050 696.267456,466.448059 
	C696.272644,473.403839 697.880310,474.973480 704.792480,474.996735 
	C712.788269,475.023590 720.784241,475.032867 728.779907,474.993744 
	C735.692749,474.959930 737.150513,473.443024 737.178528,466.371216 
	C737.201416,460.594971 737.183167,454.818542 737.183167,448.679840 
	C742.670898,448.679840 747.508057,448.410004 752.285828,448.824799 
	C753.980408,448.971924 756.183960,450.414490 757.030090,451.904572 
	C760.229187,457.537933 763.012939,463.410797 765.860168,469.239014 
	C767.817627,473.246063 770.768738,475.171204 775.372009,475.059814 
	C783.696106,474.858429 792.028564,475.003113 800.357544,475.003052 
	C812.514526,475.002991 812.991943,474.204712 807.233215,463.538086 
	C802.445129,454.669403 797.662231,445.797943 793.331604,437.770355 
	C797.893738,432.231140 802.558350,427.780975 805.781189,422.457916 
	C826.966736,387.467041 803.477844,342.550507 762.382202,340.116760 
	C742.790527,338.956512 723.087708,339.603638 703.435059,339.589783 
	C698.113586,339.586029 696.387573,341.539276 696.284363,347.010254 
	C696.168091,353.171539 696.256409,359.336670 696.255676,366.500061 
M1618.499756,436.225159 
	C1604.591919,436.225159 1590.684082,436.225159 1577.026123,436.225159 
	C1577.026123,431.795929 1577.026123,428.234985 1577.026123,424.413971 
	C1589.155273,424.413971 1600.813354,424.414093 1612.471436,424.413971 
	C1626.997314,424.413818 1626.997314,424.413727 1626.997314,409.730621 
	C1626.997314,394.074432 1626.997314,394.074432 1611.397949,394.074432 
	C1599.941040,394.074432 1588.484131,394.074432 1576.835938,394.074432 
	C1576.835938,388.629883 1576.835938,383.717834 1576.835938,378.232361 
	C1578.903564,378.232361 1580.692505,378.232513 1582.481445,378.232361 
	C1600.313599,378.230835 1618.145752,378.265259 1635.977661,378.206970 
	C1641.759888,378.188080 1643.197754,376.803345 1643.268799,371.196289 
	C1643.372192,363.031494 1643.202637,354.862885 1643.332520,346.698853 
	C1643.408813,341.913422 1641.319092,339.549164 1636.519409,339.550140 
	C1605.188232,339.556519 1573.857178,339.561127 1542.526001,339.540802 
	C1537.748657,339.537689 1535.630371,341.780273 1535.637329,346.599518 
	C1535.696411,387.096710 1535.648071,427.594025 1535.699219,468.091248 
	C1535.705811,473.300659 1537.416992,474.966370 1542.662231,474.974487 
	C1574.493408,475.023834 1606.324707,475.025452 1638.155884,474.971100 
	C1643.242676,474.962433 1644.980347,473.111145 1645.033813,467.956604 
	C1645.113037,460.291260 1645.107178,452.624023 1645.036499,444.958496 
	C1644.982544,439.098785 1642.430542,436.444489 1636.497192,436.271332 
	C1630.835571,436.106079 1625.165649,436.229004 1618.499756,436.225159 
M590.761841,347.223694 
	C552.549622,370.657715 545.205322,422.868408 575.519043,455.090332 
	C602.449097,483.715546 642.957153,481.387390 671.997009,467.030060 
	C674.071716,466.004333 675.967346,462.321991 676.009033,459.842346 
	C676.336487,440.362305 676.153748,420.874207 676.224854,401.388947 
	C676.238525,397.637390 674.780029,395.890167 670.920105,395.911041 
	C656.930908,395.986755 642.940674,395.998871 628.951721,395.902374 
	C625.065369,395.875549 623.564026,397.635590 623.599731,401.348267 
	C623.670166,408.675446 623.567139,416.004181 623.626526,423.331543 
	C623.672974,429.057587 624.486816,429.780426 630.452515,429.841095 
	C632.568420,429.862610 634.684814,429.844543 636.830933,429.844543 
	C636.830933,432.772675 636.830933,435.139801 636.830933,437.675812 
	C634.478577,437.926086 632.515198,438.187927 630.543335,438.336365 
	C616.520630,439.391693 605.018860,432.197174 599.866821,419.174652 
	C595.067749,407.044403 598.410339,393.211975 608.102966,385.091156 
	C618.651001,376.253662 632.484375,375.401642 644.256775,382.864288 
	C649.391663,386.119354 650.885376,385.834320 654.367737,380.666077 
	C658.738403,374.179443 663.031250,367.640350 667.354675,361.121887 
	C672.358826,353.577179 671.952026,350.992859 663.849792,346.679047 
	C639.727356,333.835754 615.522339,333.639526 590.761841,347.223694 
M1360.857544,339.536682 
	C1351.694824,339.534424 1342.531982,339.498047 1333.369385,339.541656 
	C1326.991455,339.571991 1326.089600,340.470856 1326.084106,346.737274 
	C1326.064575,369.061005 1326.081177,391.384705 1326.068848,413.708435 
	C1326.067505,416.039520 1326.114990,418.385345 1325.885376,420.699066 
	C1324.854614,431.081360 1317.686035,437.744873 1307.777466,437.644043 
	C1297.385986,437.538330 1290.618774,430.876770 1289.951538,420.040375 
	C1289.818604,417.881104 1289.814941,415.711578 1289.814087,413.546753 
	C1289.804688,391.223022 1289.825684,368.899292 1289.796509,346.575592 
	C1289.788574,340.520844 1288.851685,339.576965 1282.853638,339.544281 
	C1273.524658,339.493408 1264.194214,339.613098 1254.866333,339.498596 
	C1250.672607,339.447144 1248.864990,341.101166 1248.888306,345.426392 
	C1249.025757,370.914398 1248.534912,396.415924 1249.208618,421.887695 
	C1249.717896,441.141724 1256.625732,458.163147 1273.902710,468.354675 
	C1295.097900,480.857574 1317.566162,481.129822 1339.261475,469.756622 
	C1358.561401,459.639191 1366.148682,441.615112 1366.707520,420.813446 
	C1367.378418,395.841766 1366.895142,370.839844 1366.998535,345.851379 
	C1367.014160,342.076721 1365.818726,339.707611 1360.857544,339.536682 
M1087.448364,451.870697 
	C1096.484863,430.658234 1091.472534,411.596466 1073.937988,401.268799 
	C1070.381592,399.174164 1066.497070,397.510193 1062.584351,396.173035 
	C1053.775391,393.162720 1044.774170,390.703278 1036.017456,387.557251 
	C1032.516479,386.299438 1027.043213,385.032532 1028.518677,379.937866 
	C1029.908813,375.138184 1035.323975,375.492493 1039.311646,376.339783 
	C1043.630249,377.257477 1047.849854,379.071472 1051.830078,381.060242 
	C1060.016968,385.150970 1060.920532,385.112946 1067.012085,378.064392 
	C1070.715698,373.779144 1074.424316,369.498199 1078.142334,365.225464 
	C1083.963013,358.536346 1083.670898,355.160828 1076.765259,349.539856 
	C1058.395264,334.587311 1026.127686,332.782501 1006.208679,345.742004 
	C992.235535,354.833069 987.226685,368.262604 988.013062,384.381744 
	C988.737732,399.236908 996.476685,409.290436 1009.590698,415.406830 
	C1015.147400,417.998505 1020.999817,419.977112 1026.779541,422.063446 
	C1032.561401,424.150604 1038.576416,425.675385 1044.165405,428.171539 
	C1046.266602,429.109985 1047.458252,432.085358 1049.064453,434.132172 
	C1046.817749,435.473450 1044.465942,438.090057 1042.344360,437.914978 
	C1036.172363,437.405670 1029.901489,436.351074 1024.041504,434.395355 
	C1019.903503,433.014313 1016.344971,429.858490 1012.577026,427.418884 
	C1009.142578,425.195282 1006.133728,425.401123 1003.202148,428.417847 
	C997.397217,434.391327 991.405701,440.184082 985.622620,446.178223 
	C981.321960,450.635864 981.421448,453.149109 985.740295,457.686188 
	C986.884705,458.888397 988.127319,460.015137 989.425537,461.050140 
	C1005.942932,474.218628 1025.167480,478.397369 1045.688232,477.089661 
	C1063.446899,475.957916 1078.160034,468.922394 1087.448364,451.870697 
M431.780975,426.196777 
	C425.894470,439.601868 419.984833,452.996826 414.131500,466.416382 
	C411.267700,472.982056 412.527222,474.954407 419.563782,474.992676 
	C427.561890,475.036133 435.560455,475.003021 443.558807,475.002960 
	C454.783966,475.002869 455.015167,475.002655 458.506042,464.509186 
	C459.573059,461.301697 461.226227,460.599487 464.290802,460.650208 
	C474.286011,460.815613 484.302765,461.061707 494.276764,460.572815 
	C499.713776,460.306335 502.205414,462.024994 503.592987,467.285065 
	C505.373108,474.033051 507.334625,475.036682 514.413025,475.048615 
	C523.077942,475.063171 531.742798,475.056946 540.407715,475.051056 
	C549.051880,475.045197 550.040283,473.582520 546.630371,465.760345 
	C529.145752,425.650635 511.542084,385.592102 494.273865,345.389465 
	C491.535553,339.014374 487.664978,336.843658 480.904266,336.824646 
	C474.013763,336.805298 469.796112,338.836365 466.981354,345.430908 
	C455.552246,372.207458 443.723602,398.813477 431.780975,426.196777 
M1174.704590,337.181732 
	C1171.708374,337.128815 1168.708740,337.148254 1165.716675,337.006439 
	C1160.910400,336.778564 1157.879272,339.109467 1156.018555,343.362762 
	C1137.884277,384.815186 1119.715820,426.252594 1101.620850,467.722168 
	C1099.443359,472.712402 1100.944946,474.899536 1106.466187,474.971313 
	C1114.961548,475.081726 1123.459595,475.002594 1131.956421,475.002777 
	C1142.707153,475.003021 1143.054321,474.904114 1146.473999,464.609589 
	C1147.510132,461.490204 1149.030640,460.580231 1152.184204,460.641815 
	C1162.010254,460.833832 1171.860840,461.074860 1181.664917,460.573669 
	C1187.379395,460.281555 1190.638550,461.677612 1191.699707,467.657654 
	C1192.652222,473.025543 1196.235229,475.265503 1201.798706,475.120026 
	C1211.288574,474.871887 1220.790161,475.090912 1230.286255,475.037598 
	C1236.388672,475.003326 1237.694214,473.005676 1235.205566,467.277130 
	C1217.309814,426.084045 1199.413330,384.891022 1181.326050,343.781982 
	C1180.225220,341.280273 1177.491455,339.497009 1174.704590,337.181732 
M1315.793945,299.971191 
	C1313.071167,300.912415 1309.291992,301.036621 1307.817383,302.943237 
	C1302.743896,309.503021 1298.295776,316.576416 1293.980225,323.679474 
	C1291.933960,327.047577 1293.300415,328.996948 1297.328125,329.081146 
	C1302.987183,329.199524 1308.656982,329.234009 1314.309204,328.994385 
	C1316.003784,328.922516 1318.145508,328.277557 1319.244019,327.107819 
	C1325.509033,320.437073 1331.711182,313.685608 1337.536621,306.632721 
	C1340.348022,303.228912 1338.612305,300.142456 1334.209961,300.039917 
	C1328.384399,299.904266 1322.553589,299.982910 1315.793945,299.971191 
z"/>
<path fill="#321C9A" opacity="1.000000" stroke="none" 
	d="
M124.194901,440.804779 
	C121.403549,432.949677 120.847855,425.259369 120.911087,417.348450 
	C121.124130,390.695557 120.994026,364.039917 120.995567,337.385345 
	C120.995918,331.279419 122.271332,329.884735 128.963791,329.014008 
	C147.495926,326.602875 165.553726,322.425598 182.969681,315.466064 
	C200.416183,308.494354 216.406876,299.080414 231.175720,287.573364 
	C240.653625,280.188751 246.879883,279.843597 256.200867,287.002563 
	C286.162354,310.014496 319.596802,324.525146 357.341034,328.686096 
	C364.825348,329.511139 366.693665,331.611755 366.952118,339.316681 
	C367.264740,348.636871 367.217407,357.970764 367.236053,367.298889 
	C367.272736,385.626862 367.560028,403.961823 367.158417,422.281067 
	C366.768921,440.047058 359.456726,455.797668 351.465973,471.240814 
	C335.927582,501.270752 313.023895,524.919250 287.097168,546.036133 
	C275.531311,555.456299 263.186523,563.458008 249.478775,569.379333 
	C245.898071,570.926086 242.762802,570.932373 239.020691,569.451477 
	C217.488098,560.930054 200.360703,546.141785 183.588837,530.880005 
	C160.916870,510.249329 142.472504,486.438782 130.338516,458.090302 
	C127.989174,452.601593 126.293579,446.833069 124.194901,440.804779 
M247.191788,312.037262 
	C243.333313,309.723267 240.639038,311.901093 237.950806,314.361084 
	C224.494659,326.674774 208.885468,335.520874 191.595917,340.843445 
	C178.188614,344.970886 164.324860,347.671112 150.578857,350.607025 
	C146.773224,351.419800 145.883728,352.995270 145.924484,356.589203 
	C146.134201,375.077332 146.082916,393.568298 146.172150,412.058044 
	C146.196198,417.042328 145.971878,422.078339 146.586807,427.000000 
	C148.665741,443.639435 157.221008,457.521179 166.030396,471.258148 
	C185.970840,502.352356 213.716888,525.090576 244.471954,544.745544 
	C249.459305,541.275696 254.372299,537.858887 259.284058,534.440186 
	C287.792297,514.597412 311.873810,490.576721 329.219543,460.222412 
	C335.335022,449.520630 341.549744,438.646820 341.843903,425.999420 
	C342.385803,402.695618 342.190796,379.375061 342.382111,356.062164 
	C342.408417,352.854431 341.420685,351.447754 337.947357,350.920563 
	C304.612793,345.860748 273.302338,335.939148 247.191788,312.037262 
z"/>
<path fill="#321B99" opacity="1.000000" stroke="none" 
	d="
M1390.969482,340.828156 
	C1393.069702,340.240387 1394.841064,339.578278 1396.611450,339.581177 
	C1416.438721,339.613556 1436.281494,339.285126 1456.089478,339.957886 
	C1490.869751,341.139252 1516.854004,367.874908 1518.059814,402.723572 
	C1518.810425,424.412262 1513.286133,443.636078 1496.715332,458.592896 
	C1485.113037,469.065063 1471.093384,474.240326 1455.717163,474.710205 
	C1435.738403,475.320770 1415.729492,474.999603 1395.733765,474.966675 
	C1390.322388,474.957764 1388.624023,472.818420 1388.620117,466.477203 
	C1388.597168,429.983398 1388.608276,393.489594 1388.608276,356.995789 
	C1388.608276,353.663025 1388.375000,350.306763 1388.702271,347.006226 
	C1388.903076,344.980865 1389.965088,343.040924 1390.969482,340.828156 
M1442.498779,436.142456 
	C1447.142334,435.952423 1451.918579,436.395813 1456.405029,435.455994 
	C1471.064819,432.385223 1479.995972,416.493256 1476.496460,400.379883 
	C1474.038208,389.060272 1467.922241,380.366089 1456.140991,378.475677 
	C1447.603638,377.105804 1438.669678,378.208313 1429.849854,378.208313 
	C1429.849854,397.578766 1429.849854,416.621765 1429.849854,436.142487 
	C1433.923950,436.142487 1437.714722,436.142487 1442.498779,436.142456 
z"/>
<path fill="#321B99" opacity="1.000000" stroke="none" 
	d="
M954.248352,451.227295 
	C919.640015,491.895782 855.162781,484.029236 834.087585,436.421753 
	C823.078552,411.553131 825.512878,387.015717 841.893616,365.093262 
	C858.197327,343.273926 880.937256,334.227997 907.740601,337.879822 
	C962.906677,345.395966 987.911255,406.447418 954.248352,451.227295 
M910.916199,380.358246 
	C898.813293,375.663666 887.554443,377.131165 877.935425,385.933777 
	C869.505310,393.648468 866.979919,403.645111 869.583374,414.669373 
	C872.672974,427.752319 884.919434,436.814148 898.731567,436.715363 
	C912.549194,436.616547 924.743347,427.238007 927.755371,414.393188 
	C930.988708,400.604919 924.731018,387.603149 910.916199,380.358246 
z"/>
<path fill="#321B9A" opacity="1.000000" stroke="none" 
	d="
M696.255737,366.000092 
	C696.256409,359.336670 696.168091,353.171539 696.284363,347.010254 
	C696.387573,341.539276 698.113586,339.586029 703.435059,339.589783 
	C723.087708,339.603638 742.790527,338.956512 762.382202,340.116760 
	C803.477844,342.550507 826.966736,387.467041 805.781189,422.457916 
	C802.558350,427.780975 797.893738,432.231140 793.331604,437.770355 
	C797.662231,445.797943 802.445129,454.669403 807.233215,463.538086 
	C812.991943,474.204712 812.514526,475.002991 800.357544,475.003052 
	C792.028564,475.003113 783.696106,474.858429 775.372009,475.059814 
	C770.768738,475.171204 767.817627,473.246063 765.860168,469.239014 
	C763.012939,463.410797 760.229187,457.537933 757.030090,451.904572 
	C756.183960,450.414490 753.980408,448.971924 752.285828,448.824799 
	C747.508057,448.410004 742.670898,448.679840 737.183167,448.679840 
	C737.183167,454.818542 737.201416,460.594971 737.178528,466.371216 
	C737.150513,473.443024 735.692749,474.959930 728.779907,474.993744 
	C720.784241,475.032867 712.788269,475.023590 704.792480,474.996735 
	C697.880310,474.973480 696.272644,473.403839 696.267456,466.448059 
	C696.242432,433.132050 696.255859,399.816071 696.255737,366.000092 
M762.689941,377.642731 
	C754.504578,373.505554 745.903931,375.644073 737.615662,375.093719 
	C737.615662,388.851288 737.615662,401.727722 737.615662,414.746674 
	C743.213623,414.746674 748.381165,415.000153 753.514954,414.691589 
	C762.913757,414.126709 769.444214,409.058960 771.758301,400.996399 
	C774.440735,391.650299 771.554382,383.736755 762.689941,377.642731 
z"/>
<path fill="#321B99" opacity="1.000000" stroke="none" 
	d="
M1618.999512,436.225220 
	C1625.165649,436.229004 1630.835571,436.106079 1636.497192,436.271332 
	C1642.430542,436.444489 1644.982544,439.098785 1645.036499,444.958496 
	C1645.107178,452.624023 1645.113037,460.291260 1645.033813,467.956604 
	C1644.980347,473.111145 1643.242676,474.962433 1638.155884,474.971100 
	C1606.324707,475.025452 1574.493408,475.023834 1542.662231,474.974487 
	C1537.416992,474.966370 1535.705811,473.300659 1535.699219,468.091248 
	C1535.648071,427.594025 1535.696411,387.096710 1535.637329,346.599518 
	C1535.630371,341.780273 1537.748657,339.537689 1542.526001,339.540802 
	C1573.857178,339.561127 1605.188232,339.556519 1636.519409,339.550140 
	C1641.319092,339.549164 1643.408813,341.913422 1643.332520,346.698853 
	C1643.202637,354.862885 1643.372192,363.031494 1643.268799,371.196289 
	C1643.197754,376.803345 1641.759888,378.188080 1635.977661,378.206970 
	C1618.145752,378.265259 1600.313599,378.230835 1582.481445,378.232361 
	C1580.692505,378.232513 1578.903564,378.232361 1576.835938,378.232361 
	C1576.835938,383.717834 1576.835938,388.629883 1576.835938,394.074432 
	C1588.484131,394.074432 1599.941040,394.074432 1611.397949,394.074432 
	C1626.997314,394.074432 1626.997314,394.074432 1626.997314,409.730621 
	C1626.997314,424.413727 1626.997314,424.413818 1612.471436,424.413971 
	C1600.813354,424.414093 1589.155273,424.413971 1577.026123,424.413971 
	C1577.026123,428.234985 1577.026123,431.795929 1577.026123,436.225159 
	C1590.684082,436.225159 1604.591919,436.225159 1618.999512,436.225220 
z"/>
<path fill="#321B99" opacity="1.000000" stroke="none" 
	d="
M591.088684,347.055206 
	C615.522339,333.639526 639.727356,333.835754 663.849792,346.679047 
	C671.952026,350.992859 672.358826,353.577179 667.354675,361.121887 
	C663.031250,367.640350 658.738403,374.179443 654.367737,380.666077 
	C650.885376,385.834320 649.391663,386.119354 644.256775,382.864288 
	C632.484375,375.401642 618.651001,376.253662 608.102966,385.091156 
	C598.410339,393.211975 595.067749,407.044403 599.866821,419.174652 
	C605.018860,432.197174 616.520630,439.391693 630.543335,438.336365 
	C632.515198,438.187927 634.478577,437.926086 636.830933,437.675812 
	C636.830933,435.139801 636.830933,432.772675 636.830933,429.844543 
	C634.684814,429.844543 632.568420,429.862610 630.452515,429.841095 
	C624.486816,429.780426 623.672974,429.057587 623.626526,423.331543 
	C623.567139,416.004181 623.670166,408.675446 623.599731,401.348267 
	C623.564026,397.635590 625.065369,395.875549 628.951721,395.902374 
	C642.940674,395.998871 656.930908,395.986755 670.920105,395.911041 
	C674.780029,395.890167 676.238525,397.637390 676.224854,401.388947 
	C676.153748,420.874207 676.336487,440.362305 676.009033,459.842346 
	C675.967346,462.321991 674.071716,466.004333 671.997009,467.030060 
	C642.957153,481.387390 602.449097,483.715546 575.519043,455.090332 
	C545.205322,422.868408 552.549622,370.657715 591.088684,347.055206 
z"/>
<path fill="#321B99" opacity="1.000000" stroke="none" 
	d="
M1361.291504,339.554993 
	C1365.818726,339.707611 1367.014160,342.076721 1366.998535,345.851379 
	C1366.895142,370.839844 1367.378418,395.841766 1366.707520,420.813446 
	C1366.148682,441.615112 1358.561401,459.639191 1339.261475,469.756622 
	C1317.566162,481.129822 1295.097900,480.857574 1273.902710,468.354675 
	C1256.625732,458.163147 1249.717896,441.141724 1249.208618,421.887695 
	C1248.534912,396.415924 1249.025757,370.914398 1248.888306,345.426392 
	C1248.864990,341.101166 1250.672607,339.447144 1254.866333,339.498596 
	C1264.194214,339.613098 1273.524658,339.493408 1282.853638,339.544281 
	C1288.851685,339.576965 1289.788574,340.520844 1289.796509,346.575592 
	C1289.825684,368.899292 1289.804688,391.223022 1289.814087,413.546753 
	C1289.814941,415.711578 1289.818604,417.881104 1289.951538,420.040375 
	C1290.618774,430.876770 1297.385986,437.538330 1307.777466,437.644043 
	C1317.686035,437.744873 1324.854614,431.081360 1325.885376,420.699066 
	C1326.114990,418.385345 1326.067505,416.039520 1326.068848,413.708435 
	C1326.081177,391.384705 1326.064575,369.061005 1326.084106,346.737274 
	C1326.089600,340.470856 1326.991455,339.571991 1333.369385,339.541656 
	C1342.531982,339.498047 1351.694824,339.534424 1361.291504,339.554993 
z"/>
<path fill="#321C9A" opacity="1.000000" stroke="none" 
	d="
M1087.270996,452.201965 
	C1078.160034,468.922394 1063.446899,475.957916 1045.688232,477.089661 
	C1025.167480,478.397369 1005.942932,474.218628 989.425537,461.050140 
	C988.127319,460.015137 986.884705,458.888397 985.740295,457.686188 
	C981.421448,453.149109 981.321960,450.635864 985.622620,446.178223 
	C991.405701,440.184082 997.397217,434.391327 1003.202148,428.417847 
	C1006.133728,425.401123 1009.142578,425.195282 1012.577026,427.418884 
	C1016.344971,429.858490 1019.903503,433.014313 1024.041504,434.395355 
	C1029.901489,436.351074 1036.172363,437.405670 1042.344360,437.914978 
	C1044.465942,438.090057 1046.817749,435.473450 1049.064453,434.132141 
	C1047.458252,432.085358 1046.266602,429.109985 1044.165405,428.171539 
	C1038.576416,425.675385 1032.561401,424.150604 1026.779541,422.063446 
	C1020.999817,419.977112 1015.147400,417.998505 1009.590698,415.406830 
	C996.476685,409.290436 988.737732,399.236908 988.013062,384.381744 
	C987.226685,368.262604 992.235535,354.833069 1006.208679,345.742004 
	C1026.127686,332.782501 1058.395264,334.587311 1076.765259,349.539856 
	C1083.670898,355.160828 1083.963013,358.536346 1078.142334,365.225464 
	C1074.424316,369.498199 1070.715698,373.779144 1067.012085,378.064392 
	C1060.920532,385.112946 1060.016968,385.150970 1051.830078,381.060242 
	C1047.849854,379.071472 1043.630249,377.257477 1039.311646,376.339783 
	C1035.323975,375.492493 1029.908813,375.138184 1028.518677,379.937866 
	C1027.043213,385.032532 1032.516479,386.299438 1036.017456,387.557251 
	C1044.774170,390.703278 1053.775391,393.162720 1062.584351,396.173035 
	C1066.497070,397.510193 1070.381592,399.174164 1073.937988,401.268799 
	C1091.472534,411.596466 1096.484863,430.658234 1087.270996,452.201965 
z"/>
<path fill="#321B9A" opacity="1.000000" stroke="none" 
	d="
M431.911621,425.839600 
	C443.723602,398.813477 455.552246,372.207458 466.981354,345.430908 
	C469.796112,338.836365 474.013763,336.805298 480.904266,336.824646 
	C487.664978,336.843658 491.535553,339.014374 494.273865,345.389465 
	C511.542084,385.592102 529.145752,425.650635 546.630371,465.760345 
	C550.040283,473.582520 549.051880,475.045197 540.407715,475.051056 
	C531.742798,475.056946 523.077942,475.063171 514.413025,475.048615 
	C507.334625,475.036682 505.373108,474.033051 503.592987,467.285065 
	C502.205414,462.024994 499.713776,460.306335 494.276764,460.572815 
	C484.302765,461.061707 474.286011,460.815613 464.290802,460.650208 
	C461.226227,460.599487 459.573059,461.301697 458.506042,464.509186 
	C455.015167,475.002655 454.783966,475.002869 443.558807,475.002960 
	C435.560455,475.003021 427.561890,475.036133 419.563782,474.992676 
	C412.527222,474.954407 411.267700,472.982056 414.131500,466.416382 
	C419.984833,452.996826 425.894470,439.601868 431.911621,425.839600 
M474.695129,417.069366 
	C473.222748,421.435547 471.750336,425.801697 470.146637,430.557190 
	C477.315125,430.557190 483.885742,430.557190 491.017151,430.557190 
	C487.563721,420.415131 484.217133,410.586945 480.537720,399.781189 
	C478.437897,405.963104 476.680481,411.137024 474.695129,417.069366 
z"/>
<path fill="#321B9A" opacity="1.000000" stroke="none" 
	d="
M1175.111084,337.280579 
	C1177.491455,339.497009 1180.225220,341.280273 1181.326050,343.781982 
	C1199.413330,384.891022 1217.309814,426.084045 1235.205566,467.277130 
	C1237.694214,473.005676 1236.388672,475.003326 1230.286255,475.037598 
	C1220.790161,475.090912 1211.288574,474.871887 1201.798706,475.120026 
	C1196.235229,475.265503 1192.652222,473.025543 1191.699707,467.657654 
	C1190.638550,461.677612 1187.379395,460.281555 1181.664917,460.573669 
	C1171.860840,461.074860 1162.010254,460.833832 1152.184204,460.641815 
	C1149.030640,460.580231 1147.510132,461.490204 1146.473999,464.609589 
	C1143.054321,474.904114 1142.707153,475.003021 1131.956421,475.002777 
	C1123.459595,475.002594 1114.961548,475.081726 1106.466187,474.971313 
	C1100.944946,474.899536 1099.443359,472.712402 1101.620850,467.722168 
	C1119.715820,426.252594 1137.884277,384.815186 1156.018555,343.362762 
	C1157.879272,339.109467 1160.910400,336.778564 1165.716675,337.006439 
	C1168.708740,337.148254 1171.708374,337.128815 1175.111084,337.280579 
M1178.198608,428.168091 
	C1175.097290,419.076904 1171.995850,409.985687 1168.498657,399.734436 
	C1164.790649,410.768005 1161.527832,420.476593 1158.068726,430.769623 
	C1164.865356,430.769623 1170.981934,430.809967 1177.095459,430.690002 
	C1177.564087,430.680786 1178.010376,429.539459 1178.198608,428.168091 
z"/>
<path fill="#331D9A" opacity="1.000000" stroke="none" 
	d="
M1316.259521,299.970337 
	C1322.553589,299.982910 1328.384399,299.904266 1334.209961,300.039917 
	C1338.612305,300.142456 1340.348022,303.228912 1337.536621,306.632721 
	C1331.711182,313.685608 1325.509033,320.437073 1319.244019,327.107819 
	C1318.145508,328.277557 1316.003784,328.922516 1314.309204,328.994385 
	C1308.656982,329.234009 1302.987183,329.199524 1297.328125,329.081146 
	C1293.300415,328.996948 1291.933960,327.047577 1293.980225,323.679474 
	C1298.295776,316.576416 1302.743896,309.503021 1307.817383,302.943237 
	C1309.291992,301.036621 1313.071167,300.912415 1316.259521,299.970337 
z"/>
<path fill="#E9E5E5" opacity="1.000000" stroke="none" 
	d="
M247.518829,312.218445 
	C273.302338,335.939148 304.612793,345.860748 337.947357,350.920563 
	C341.420685,351.447754 342.408417,352.854431 342.382111,356.062164 
	C342.190796,379.375061 342.385803,402.695618 341.843903,425.999420 
	C341.549744,438.646820 335.335022,449.520630 329.219543,460.222412 
	C311.873810,490.576721 287.792297,514.597412 259.284058,534.440186 
	C254.372299,537.858887 249.459305,541.275696 244.471954,544.745544 
	C213.716888,525.090576 185.970840,502.352356 166.030396,471.258148 
	C157.221008,457.521179 148.665741,443.639435 146.586807,427.000000 
	C145.971878,422.078339 146.196198,417.042328 146.172150,412.058044 
	C146.082916,393.568298 146.134201,375.077332 145.924484,356.589203 
	C145.883728,352.995270 146.773224,351.419800 150.578857,350.607025 
	C164.324860,347.671112 178.188614,344.970886 191.595917,340.843445 
	C208.885468,335.520874 224.494659,326.674774 237.950806,314.361084 
	C240.639038,311.901093 243.333313,309.723267 247.518829,312.218445 
M217.415436,439.163269 
	C219.857147,439.163269 222.298874,439.163269 224.995316,439.163269 
	C224.995316,450.259186 225.168747,460.727814 224.905487,471.185455 
	C224.807327,475.084930 226.186188,476.740753 229.919540,476.749512 
	C240.413361,476.774170 250.907593,476.761414 261.400757,476.860321 
	C264.413055,476.888702 265.667755,475.350159 265.736237,472.618774 
	C265.844727,468.292755 265.849731,463.963654 265.862946,459.635773 
	C265.881531,453.524872 265.867645,447.413910 265.867645,440.839264 
	C267.709595,440.839264 269.341217,440.839478 270.972839,440.839264 
	C278.305542,440.838287 285.640015,440.930573 292.970154,440.792969 
	C296.178131,440.732758 299.546722,440.467072 299.485687,435.843109 
	C299.336182,424.517242 299.138763,413.190948 299.136475,401.864777 
	C299.135681,398.039154 296.865234,397.546844 293.943542,397.545593 
	C286.777496,397.542511 279.611206,397.570953 272.445496,397.519531 
	C270.369354,397.504669 268.294830,397.262360 265.818726,397.097626 
	C265.818726,388.257477 265.862640,379.938507 265.797028,371.620392 
	C265.770966,368.313416 265.510315,365.318817 260.740906,365.483582 
	C251.421402,365.805542 242.088013,365.703979 232.761749,365.859344 
	C225.633392,365.978088 225.200027,366.435272 225.164444,373.559296 
	C225.122162,382.023560 225.154480,390.488159 225.154480,399.862946 
	C215.885254,399.862946 207.092529,399.917053 198.300934,399.839722 
	C194.017822,399.802094 191.868500,401.380859 191.973236,406.032623 
	C192.175735,415.026550 192.097351,424.029938 191.965820,433.026917 
	C191.903931,437.260529 193.785980,439.143311 197.941284,439.118958 
	C204.106613,439.082825 210.272537,439.143707 217.415436,439.163269 
z"/>
<path fill="#E9E5E5" opacity="1.000000" stroke="none" 
	d="
M1442.002075,436.142456 
	C1437.714722,436.142487 1433.923950,436.142487 1429.849854,436.142487 
	C1429.849854,416.621765 1429.849854,397.578766 1429.849854,378.208313 
	C1438.669678,378.208313 1447.603638,377.105804 1456.140991,378.475677 
	C1467.922241,380.366089 1474.038208,389.060272 1476.496460,400.379883 
	C1479.995972,416.493256 1471.064819,432.385223 1456.405029,435.455994 
	C1451.918579,436.395813 1447.142334,435.952423 1442.002075,436.142456 
z"/>
<path fill="#E8E4E4" opacity="1.000000" stroke="none" 
	d="
M911.242188,380.559662 
	C924.731018,387.603149 930.988708,400.604919 927.755371,414.393188 
	C924.743347,427.238007 912.549194,436.616547 898.731567,436.715363 
	C884.919434,436.814148 872.672974,427.752319 869.583374,414.669373 
	C866.979919,403.645111 869.505310,393.648468 877.935425,385.933777 
	C887.554443,377.131165 898.813293,375.663666 911.242188,380.559662 
z"/>
<path fill="#E6E2E3" opacity="1.000000" stroke="none" 
	d="
M763.025757,377.808807 
	C771.554382,383.736755 774.440735,391.650299 771.758301,400.996399 
	C769.444214,409.058960 762.913757,414.126709 753.514954,414.691589 
	C748.381165,415.000153 743.213623,414.746674 737.615662,414.746674 
	C737.615662,401.727722 737.615662,388.851288 737.615662,375.093719 
	C745.903931,375.644073 754.504578,373.505554 763.025757,377.808807 
z"/>
<path fill="#E2DDE2" opacity="1.000000" stroke="none" 
	d="
M474.809082,416.690186 
	C476.680481,411.137024 478.437897,405.963104 480.537720,399.781189 
	C484.217133,410.586945 487.563721,420.415131 491.017151,430.557190 
	C483.885742,430.557190 477.315125,430.557190 470.146637,430.557190 
	C471.750336,425.801697 473.222748,421.435547 474.809082,416.690186 
z"/>
<path fill="#E2DDE2" opacity="1.000000" stroke="none" 
	d="
M1178.332764,428.546234 
	C1178.010376,429.539459 1177.564087,430.680786 1177.095459,430.690002 
	C1170.981934,430.809967 1164.865356,430.769623 1158.068726,430.769623 
	C1161.527832,420.476593 1164.790649,410.768005 1168.498657,399.734436 
	C1171.995850,409.985687 1175.097290,419.076904 1178.332764,428.546234 
z"/>
<path fill="#321B99" opacity="1.000000" stroke="none" 
	d="
M216.926819,439.163269 
	C210.272537,439.143707 204.106613,439.082825 197.941284,439.118958 
	C193.785980,439.143311 191.903931,437.260529 191.965820,433.026917 
	C192.097351,424.029938 192.175735,415.026550 191.973236,406.032623 
	C191.868500,401.380859 194.017822,399.802094 198.300934,399.839722 
	C207.092529,399.917053 215.885254,399.862946 225.154480,399.862946 
	C225.154480,390.488159 225.122162,382.023560 225.164444,373.559296 
	C225.200027,366.435272 225.633392,365.978088 232.761749,365.859344 
	C242.088013,365.703979 251.421402,365.805542 260.740906,365.483582 
	C265.510315,365.318817 265.770966,368.313416 265.797028,371.620392 
	C265.862640,379.938507 265.818726,388.257477 265.818726,397.097626 
	C268.294830,397.262360 270.369354,397.504669 272.445496,397.519531 
	C279.611206,397.570953 286.777496,397.542511 293.943542,397.545593 
	C296.865234,397.546844 299.135681,398.039154 299.136475,401.864777 
	C299.138763,413.190948 299.336182,424.517242 299.485687,435.843109 
	C299.546722,440.467072 296.178131,440.732758 292.970154,440.792969 
	C285.640015,440.930573 278.305542,440.838287 270.972839,440.839264 
	C269.341217,440.839478 267.709595,440.839264 265.867645,440.839264 
	C265.867645,447.413910 265.881531,453.524872 265.862946,459.635773 
	C265.849731,463.963654 265.844727,468.292755 265.736237,472.618774 
	C265.667755,475.350159 264.413055,476.888702 261.400757,476.860321 
	C250.907593,476.761414 240.413361,476.774170 229.919540,476.749512 
	C226.186188,476.740753 224.807327,475.084930 224.905487,471.185455 
	C225.168747,460.727814 224.995316,450.259186 224.995316,439.163269 
	C222.298874,439.163269 219.857147,439.163269 216.926819,439.163269 
z"/>
</svg>